<svg xmlns="http://www.w3.org/2000/svg" viewBox="0 0 16 16"><defs><style>.cls-1{fill:none;}.cls-2{fill:#212121;}.cls-3{fill:#fff;}</style></defs><g id="Camada_6" data-name="Camada 6"><rect class="cls-1" width="16" height="16"/><path class="cls-2" d="M1,2V13a.979.979,0,0,0,1,1H14a.979.979,0,0,0,1-1V4a.979.979,0,0,0-1-1H9L7,1H2A.979.979,0,0,0,1,2Z"/></g><g id="Camada_4" data-name="Camada 4"><path class="cls-3" d="M5.342,11,7.486,6.067H4.67V5h4.1v.8L6.605,11Z"/><path class="cls-3" d="M13.057,11H9.609v-.645l2.024-2.52h-1.9V7h3.255v.711l-1.966,2.454h2.039Z"/></g></svg>