<svg id="Camada_2" data-name="Camada 2" xmlns="http://www.w3.org/2000/svg" viewBox="0 0 16 16"><defs><style>.cls-1{fill:#1d1d1b;}</style></defs><path class="cls-1" d="M.447,11A.447.447,0,0,0,0,11.447v3.106A.447.447,0,0,0,.447,15H5.5V11ZM2,14H1V12H2Z"/><path class="cls-1" d="M.447,10H5.5V9.708A1.261,1.261,0,0,1,5,8.717V6.283A1.2,1.2,0,0,1,5.05,6H.447A.447.447,0,0,0,0,6.447V9.553A.447.447,0,0,0,.447,10ZM1,7H2V9H1Z"/><path class="cls-1" d="M5.5,1H.447A.447.447,0,0,0,0,1.447V4.553A.447.447,0,0,0,.447,5H5.5ZM1,4V2H2V4Z"/><path class="cls-1" d="M10,11V9.943A1.225,1.225,0,0,1,9.717,10H6.283A1.225,1.225,0,0,1,6,9.943V15h4Z"/><path class="cls-1" d="M15.553,11H10.5v4h5.053A.447.447,0,0,0,16,14.553V11.447A.447.447,0,0,0,15.553,11Z"/><path class="cls-1" d="M15.553,6h-4.6a1.2,1.2,0,0,1,.05.283V8.717a1.261,1.261,0,0,1-.5.991V10h5.053A.447.447,0,0,0,16,9.553V6.447A.447.447,0,0,0,15.553,6Z"/><path class="cls-1" d="M15.553,1H10.5V5h5.053A.447.447,0,0,0,16,4.553V1.447A.447.447,0,0,0,15.553,1Z"/><path class="cls-1" d="M9.125,0H6.875A.875.875,0,0,0,6,.875V8.189A.811.811,0,0,0,6.811,9H7.5V7.5a.5.5,0,0,1,1,0V9h.692A.811.811,0,0,0,10,8.189V.875A.875.875,0,0,0,9.125,0Z"/></svg>