<?xml version="1.0" encoding="utf-8"?>
<!-- Generator: Adobe Illustrator 25.0.1, SVG Export Plug-In . SVG Version: 6.00 Build 0)  -->
<svg version="1.1" id="Camada_2" xmlns="http://www.w3.org/2000/svg" xmlns:xlink="http://www.w3.org/1999/xlink" x="0px" y="0px"
	 viewBox="0 0 16 16" style="enable-background:new 0 0 16 16;" xml:space="preserve">
<style type="text/css">
	.st0{fill:none;}
	.st1{fill:#00C8FF;}
</style>
<rect class="st0" width="16" height="16"/>
<path class="st1" d="M7.098,3.834C6.496,3.278,5.543,3,4.237,3H1v10h2.144V9.442h0.923c0.984,0,1.762-0.154,2.336-0.462
	c0.572-0.308,0.981-0.714,1.229-1.218C7.876,7.258,8,6.712,8,6.123C8,5.152,7.699,4.389,7.098,3.834z M5.295,7.349
	C4.94,7.587,4.459,7.706,3.854,7.706h-0.71V4.737h0.98c1.136,0,1.704,0.486,1.704,1.457C5.827,6.725,5.65,7.111,5.295,7.349z"/>
<path class="st1" d="M14,10.569c0,0.783-0.235,1.384-0.707,1.802C12.822,12.791,12.12,13,11.187,13
	c-0.459,0-0.854-0.034-1.184-0.105s-0.66-0.186-0.991-0.347V10.81c0.355,0.188,0.737,0.344,1.148,0.465
	c0.411,0.123,0.773,0.185,1.087,0.185c0.347,0,0.596-0.062,0.749-0.185c0.153-0.121,0.23-0.282,0.23-0.48
	c0-0.132-0.03-0.25-0.09-0.354c-0.061-0.103-0.191-0.222-0.393-0.354C11.54,9.957,11.226,9.787,10.8,9.58
	c-0.419-0.207-0.759-0.412-1.021-0.615C9.517,8.763,9.322,8.517,9.193,8.23C9.064,7.942,9,7.582,9,7.149
	c0-0.716,0.238-1.253,0.712-1.611C10.188,5.179,10.82,5,11.608,5c0.411,0,0.801,0.047,1.172,0.141
	c0.37,0.095,0.752,0.25,1.147,0.467l-0.543,1.513c-0.322-0.16-0.628-0.295-0.917-0.403c-0.29-0.108-0.584-0.162-0.882-0.162
	c-0.532,0-0.797,0.169-0.797,0.509c0,0.123,0.034,0.233,0.103,0.332c0.069,0.099,0.201,0.205,0.399,0.318
	c0.197,0.113,0.489,0.264,0.876,0.452c0.378,0.179,0.704,0.365,0.978,0.558c0.274,0.193,0.485,0.436,0.634,0.729
	C13.926,9.744,14,10.117,14,10.569z"/>
</svg>
