<?xml version="1.0" encoding="utf-8"?>
<!-- Generator: Adobe Illustrator 25.0.1, SVG Export Plug-In . SVG Version: 6.00 Build 0)  -->
<svg version="1.1" id="Camada_1" xmlns="http://www.w3.org/2000/svg" xmlns:xlink="http://www.w3.org/1999/xlink" x="0px" y="0px"
	 viewBox="0 0 16 16" style="enable-background:new 0 0 16 16;" xml:space="preserve">
<style type="text/css">
	.st0{fill:none;}
	.st1{fill:#FF7C00;}
</style>
<rect class="st0" width="16" height="16"/>
<path class="st1" d="M7.333,3H4.652L1,13h2.363l0.753-2.371h3.768L8.637,13H11L7.333,3z M4.667,8.858l0.739-2.315
	C5.444,6.44,5.5,6.266,5.572,6.02c0.072-0.247,0.15-0.507,0.232-0.781C5.886,4.964,5.951,4.734,6,4.548
	c0.048,0.186,0.111,0.404,0.189,0.655C6.265,5.455,6.343,5.701,6.42,5.943s0.14,0.442,0.189,0.6l0.754,2.315H4.667z"/>
<path class="st1" d="M13,2c0.272,0,0.506,0.071,0.704,0.213C13.901,2.354,14,2.617,14,3c0,0.375-0.099,0.635-0.296,0.781
	C13.506,3.927,13.272,4,13,4c-0.28,0-0.516-0.073-0.709-0.219S12,3.375,12,3c0-0.383,0.096-0.646,0.29-0.787
	C12.484,2.071,12.72,2,13,2z M14,5v8h-2V5H14z"/>
</svg>
